<svg width="401" height="256" viewBox="0 0 401 256" fill="none" xmlns="http://www.w3.org/2000/svg">
<path d="M168.139 378.765C166.835 378.529 165.582 378.53 164.382 378.768C163.16 379.021 162.052 379.484 161.058 380.158C160.063 380.832 159.226 381.686 158.545 382.72C157.862 383.772 157.398 384.969 157.156 386.31L156.847 388.018L166.159 389.703L166.508 387.774L159.4 386.488L159.425 386.35C159.664 385.028 160.189 383.909 161 382.993C161.807 382.096 162.806 381.451 163.996 381.06C165.168 380.665 166.424 380.588 167.765 380.831C169.271 381.104 170.549 381.695 171.598 382.606C172.644 383.535 173.381 384.702 173.81 386.108C174.238 387.513 174.3 389.061 173.994 390.751C173.685 392.459 173.085 393.887 172.195 395.035C171.301 396.201 170.201 397.036 168.896 397.539C167.591 398.043 166.185 398.159 164.679 397.886C163.172 397.614 161.952 397.023 161.016 396.114C160.08 395.204 159.468 394.079 159.18 392.737L157.021 393.342C157.196 394.265 157.599 395.182 158.231 396.093C158.841 397.019 159.662 397.832 160.692 398.531C161.705 399.226 162.909 399.7 164.305 399.953C165.756 400.215 167.136 400.19 168.444 399.876C169.75 399.582 170.939 399.038 172.012 398.246C173.066 397.45 173.958 396.454 174.687 395.258C175.415 394.062 175.919 392.693 176.198 391.15C176.478 389.607 176.485 388.147 176.222 386.772C175.959 385.396 175.473 384.151 174.764 383.037C174.033 381.937 173.11 381.011 171.994 380.259C170.875 379.525 169.59 379.027 168.139 378.765Z" fill="white"/>
<path d="M141.521 372.704L139.539 372.011L136.49 380.734C136.084 381.897 135.461 382.688 134.622 383.106C133.784 383.525 132.854 383.556 131.832 383.199L130.589 382.764L129.896 384.747L130.795 385.061C131.659 385.363 132.46 385.475 133.199 385.397C133.92 385.313 134.562 385.063 135.123 384.646L134.587 386.179L136.569 386.872L141.521 372.704Z" fill="white"/>
<path d="M119.009 363.381C117.978 362.855 116.941 362.588 115.897 362.579C114.854 362.571 113.95 362.781 113.187 363.209L114.167 361.288L112.296 360.334L107.615 369.513C107.165 370.395 106.987 371.278 107.08 372.164C107.148 373.058 107.467 373.891 108.037 374.664C108.59 375.428 109.357 376.06 110.338 376.56C111.087 376.942 111.882 377.169 112.725 377.243C113.559 377.333 114.369 377.285 115.155 377.1C115.925 376.905 116.579 376.589 117.116 376.151L115.891 374.363C115.261 374.859 114.536 375.149 113.718 375.235C112.89 375.337 112.069 375.18 111.254 374.764C110.323 374.289 109.694 373.654 109.366 372.858C109.039 372.063 109.078 371.266 109.485 370.468L109.842 369.769L115.088 371.439C116.695 371.944 118.034 371.988 119.106 371.571C120.178 371.154 120.977 370.43 121.503 369.399C121.876 368.667 122.016 367.921 121.921 367.161C121.827 366.4 121.532 365.684 121.037 365.012C120.533 364.357 119.857 363.813 119.009 363.381ZM119.469 368.456C119.155 369.071 118.676 369.497 118.031 369.734C117.37 369.963 116.515 369.914 115.466 369.589L110.707 368.073L111.215 367.075C111.631 366.26 112.2 365.618 112.921 365.148C113.643 364.678 114.447 364.417 115.332 364.366C116.209 364.331 117.104 364.547 118.019 365.013C118.767 365.395 119.277 365.917 119.547 366.578C119.8 367.231 119.775 367.857 119.469 368.456Z" fill="white"/>
<path d="M95.9158 350.554L94.1953 349.35L86.7943 359.926L83.7891 357.822L82.5851 359.543L85.5903 361.646L84.8197 362.747C84.2096 363.619 83.5368 364.059 82.8013 364.069C82.0657 364.078 81.3309 363.826 80.5968 363.312C80.5203 363.259 80.3957 363.16 80.2228 363.016C80.0393 362.888 79.9047 362.771 79.8191 362.665L78.7274 364.225C78.8284 364.341 78.9729 364.477 79.161 364.631C79.3384 364.801 79.5036 364.939 79.6565 365.046C80.3753 365.549 81.1553 365.867 81.9964 366C82.8375 366.133 83.6579 366.035 84.4576 365.706C85.2467 365.393 85.9409 364.808 86.5402 363.951L87.3108 362.85L89.7655 364.568L90.9695 362.847L88.5149 361.13L95.9158 350.554Z" fill="white"/>
<path d="M68.5382 352.121L66.9498 350.747L64.9351 353.077L66.5235 354.45L68.5382 352.121ZM80.1684 338.672L78.5799 337.298L68.763 348.65L70.3514 350.024L80.1684 338.672Z" fill="white"/>
<path d="M68.2026 327.897L66.7911 326.342L63.4533 329.372L59.3568 329.233L61.2393 320.226L59.5455 318.36L57.2003 329.149L48.7907 328.841L50.6163 330.852L61.3179 331.31L51.097 340.589L52.5085 342.143L68.2026 327.897Z" fill="white"/>
<path d="M50.2017 306.579L49.0066 304.852L41.4089 310.111C40.3958 310.812 39.4271 311.085 38.5028 310.93C37.5784 310.775 36.8081 310.253 36.192 309.363L35.443 308.281L33.7163 309.476L34.258 310.258C34.7786 311.011 35.3605 311.573 36.0039 311.945C36.6367 312.301 37.3025 312.476 38.0014 312.469L36.666 313.393L37.8612 315.12L50.2017 306.579Z" fill="white"/>
<path d="M30.6157 271.564C30.2223 270.616 29.7095 269.818 29.0772 269.171C28.4206 268.514 27.7156 268.008 26.9623 267.654C26.1917 267.307 25.4389 267.124 24.7037 267.106L24.5111 269.126C25.4141 269.256 26.25 269.566 27.0189 270.056C27.7878 270.545 28.3833 271.298 28.8054 272.316C29.1487 273.143 29.2724 274.001 29.1763 274.89C29.0802 275.779 28.7752 276.602 28.2615 277.361C27.7233 278.11 26.9614 278.709 25.9757 279.158L21.4475 268.244C21.2091 268.303 20.9828 268.366 20.7688 268.435C20.5375 268.511 20.3356 268.584 20.1632 268.656C19.3356 268.999 18.5947 269.479 17.9404 270.094C17.2689 270.716 16.7373 271.431 16.3455 272.241C15.9364 273.057 15.7154 273.937 15.6824 274.88C15.625 275.814 15.8037 276.78 16.2186 277.78C16.7409 279.039 17.5233 280.048 18.5661 280.808C19.6017 281.55 20.7842 281.989 22.1136 282.125C23.4258 282.268 24.7802 282.049 26.1768 281.47C27.5734 280.89 28.6982 280.07 29.5513 279.009C30.4044 277.947 30.9353 276.767 31.144 275.468C31.3283 274.159 31.1523 272.858 30.6157 271.564ZM18.029 277.029C17.7071 276.253 17.5949 275.471 17.6923 274.683C17.7825 273.878 18.0679 273.153 18.5485 272.509C19.0046 271.855 19.6429 271.348 20.4634 270.987L24.1438 279.858C23.2388 280.112 22.3866 280.152 21.587 279.979C20.7631 279.795 20.0428 279.447 19.4261 278.935C18.8095 278.423 18.3438 277.788 18.029 277.029Z" fill="white"/>
<path d="M15.8793 250.983L13.5529 241.463L11.649 241.928L13.9753 251.448L15.8793 250.983Z" fill="white"/>
<path d="M16.5823 217.697C16.4987 216.768 16.2528 215.909 15.8446 215.121C15.4363 214.333 14.9156 213.649 14.2824 213.069C13.6492 212.488 12.9559 212.073 12.2024 211.822L11.3411 213.811C12.2129 214.126 12.934 214.643 13.5045 215.36C14.0734 216.058 14.4021 216.9 14.4908 217.885C14.5794 218.871 14.4087 219.786 13.9786 220.63C13.5469 221.456 12.9243 222.14 12.1109 222.682C11.2772 223.207 10.3213 223.518 9.24294 223.615C8.14604 223.713 7.14991 223.578 6.25456 223.209C5.33895 222.823 4.60433 222.261 4.05071 221.523C3.47683 220.769 3.14557 219.899 3.05694 218.914C2.96831 217.929 3.14069 217.032 3.5741 216.225C4.00751 215.417 4.60721 214.792 5.3732 214.348L4.22657 212.54C3.51133 212.922 2.90327 213.455 2.40238 214.137C1.8829 214.821 1.49263 215.587 1.23156 216.435C0.970492 217.284 0.881767 218.172 0.965383 219.102C1.0975 220.571 1.55767 221.832 2.3459 222.886C3.11553 223.941 4.11441 224.732 5.34254 225.259C6.57067 225.785 7.9284 225.982 9.41573 225.848C10.9031 225.714 12.2132 225.278 13.3462 224.539C14.4606 223.801 15.3116 222.844 15.8992 221.666C16.4867 220.489 16.7144 219.166 16.5823 217.697Z" fill="white"/>
<path d="M15.9661 188.284C16.0759 186.888 15.8406 185.596 15.26 184.409C14.6808 183.202 13.8322 182.208 12.714 181.428C11.5772 180.645 10.2458 180.194 8.71988 180.074C7.21254 179.955 5.84632 180.185 4.62122 180.763C3.39759 181.322 2.40541 182.152 1.64468 183.253C0.885416 184.335 0.448669 185.602 0.334437 187.054C0.220206 188.505 0.46196 189.835 1.0597 191.043C1.64029 192.231 2.49042 193.206 3.61007 193.968C4.72972 194.73 6.03391 195.17 7.52264 195.287C9.02998 195.406 10.4055 195.177 11.6492 194.601C12.8758 194.004 13.8787 193.157 14.6581 192.057C15.4188 190.956 15.8548 189.698 15.9661 188.284ZM13.8726 188.119C13.7935 189.124 13.4705 190.016 12.9036 190.795C12.3382 191.556 11.5991 192.144 10.6864 192.559C9.77373 192.974 8.77771 193.139 7.69838 193.054C6.61905 192.969 5.67042 192.651 4.85248 192.1C4.03453 191.549 3.40582 190.853 2.96635 190.013C2.52834 189.155 2.34888 188.223 2.42796 187.218C2.50705 186.214 2.8293 185.331 3.39472 184.57C3.9616 183.791 4.69136 183.202 5.584 182.804C6.47809 182.388 7.4648 182.222 8.54413 182.307C9.62346 182.392 10.5814 182.711 11.418 183.264C12.256 183.798 12.894 184.494 13.332 185.352C13.7715 186.192 13.9517 187.114 13.8726 188.119Z" fill="white"/>
<path d="M18.2986 163.306L18.8784 161.287L10.2935 158.822C9.00169 158.45 8.0885 157.809 7.55388 156.898C7.01927 155.987 6.9014 155.012 7.20029 153.971C7.49918 152.931 8.11433 152.175 9.04575 151.704C9.95922 151.229 11.0708 151.179 12.3805 151.555L20.9654 154.021L21.5452 152.003L12.9603 149.537C11.6685 149.166 10.7553 148.525 10.2207 147.614C9.68607 146.703 9.5682 145.727 9.86709 144.687C10.166 143.646 10.7811 142.89 11.7125 142.42C12.626 141.944 13.7376 141.895 15.0473 142.271L23.6322 144.737L24.212 142.718L14.8466 140.028C13.824 139.734 12.8368 139.723 11.8852 139.993C10.9207 140.241 10.0868 140.71 9.38323 141.401C8.68487 142.075 8.19654 142.896 7.91827 143.865C7.63999 144.833 7.61557 145.797 7.84499 146.757C8.07957 147.698 8.58355 148.513 9.35694 149.201C8.40281 149.413 7.55604 149.859 6.81664 150.54C6.07723 151.221 5.56582 152.055 5.28239 153.042C5.04534 153.867 5.01213 154.692 5.18277 155.518C5.34062 156.321 5.68962 157.033 6.22977 157.654L4.45358 157.144L3.87384 159.163L18.2986 163.306Z" fill="white"/>
<path d="M30.9783 123.941L31.997 122.105L24.1863 117.772C23.011 117.12 22.2653 116.29 21.9492 115.282C21.6331 114.275 21.7376 113.297 22.2628 112.351C22.788 111.404 23.5573 110.806 24.5706 110.557C25.5676 110.299 26.662 110.5 27.8536 111.161L35.6643 115.494L36.683 113.658L28.8722 109.325C27.697 108.673 26.9513 107.843 26.6352 106.835C26.319 105.827 26.4236 104.85 26.9488 103.903C27.474 102.956 28.2432 102.359 29.2566 102.11C30.2536 101.851 31.3479 102.053 32.5395 102.714L40.3502 107.047L41.3689 105.21L32.8481 100.484C31.9177 99.9675 30.9584 99.7342 29.9703 99.7838C28.975 99.808 28.0568 100.078 27.2159 100.593C26.384 101.092 25.7236 101.783 25.2346 102.664C24.7457 103.546 24.5051 104.48 24.513 105.466C24.5299 106.436 24.8378 107.343 25.4367 108.188C24.4594 108.179 23.534 108.424 22.6604 108.921C21.7868 109.418 21.101 110.116 20.603 111.014C20.1865 111.764 19.9685 112.561 19.9491 113.405C19.9224 114.222 20.1024 114.994 20.4891 115.721L18.873 114.825L17.8544 116.661L30.9783 123.941Z" fill="white"/>
<path d="M57.0716 83.7494C57.7361 82.9668 58.2122 82.1466 58.4997 81.2888C58.7852 80.4047 58.9138 79.5466 58.8856 78.7146C58.8432 77.8705 58.6625 77.1171 58.3436 76.4545L56.458 77.2043C56.7536 78.0675 56.859 78.9528 56.7741 79.8603C56.6893 80.7678 56.2904 81.6413 55.5776 82.4808C54.9976 83.1638 54.2903 83.6652 53.4556 83.9849C52.6209 84.3046 51.7487 84.4089 50.8391 84.2978C49.9273 84.1603 49.0467 83.7554 48.1973 83.0831L55.8452 74.076C55.6843 73.8905 55.5246 73.7181 55.3659 73.5589C55.193 73.3876 55.0354 73.2415 54.8932 73.1207C54.2102 72.5408 53.4458 72.0999 52.6001 71.7981C51.7402 71.4843 50.8607 71.3375 49.9619 71.3579C49.0488 71.3662 48.1649 71.5707 47.3103 71.9716C46.4536 72.3461 45.6749 72.946 44.9741 73.7713C44.0921 74.81 43.5508 75.9666 43.3503 77.2411C43.1618 78.5013 43.3103 79.7539 43.796 80.9989C44.2674 82.2318 45.0794 83.3375 46.232 84.3162C47.3845 85.2948 48.6276 85.9217 49.9611 86.197C51.2947 86.4722 52.5871 86.4064 53.8385 85.9997C55.0878 85.5667 56.1655 84.8166 57.0716 83.7494ZM46.4682 75.0399C47.0119 74.3996 47.6566 73.943 48.4025 73.6703C49.1604 73.3833 49.9355 73.3068 50.7278 73.4408C51.5179 73.5485 52.2605 73.8852 52.9556 74.4509L46.7395 81.7718C46.1005 81.0823 45.6759 80.3422 45.4657 79.5516C45.2534 78.7346 45.2344 77.9349 45.409 77.1525C45.5835 76.3702 45.9366 75.666 46.4682 75.0399Z" fill="white"/>
<path d="M73.0211 66.2199L74.589 64.8229L68.442 57.9242C67.6224 57.0043 67.2329 56.0763 67.2737 55.1399C67.3144 54.2035 67.7389 53.3752 68.5473 52.655L69.5298 51.7795L68.1328 50.2116L67.422 50.8449C66.7391 51.4534 66.2523 52.0997 65.9617 52.7836C65.685 53.4552 65.5928 54.1374 65.6851 54.8302L64.6048 53.6177L63.0369 55.0148L73.0211 66.2199Z" fill="white"/>
<path d="M94.1886 49.6521C94.9628 49.1309 95.5968 48.5016 96.0905 47.7642C96.5842 47.0268 96.9327 46.2408 97.136 45.4064C97.3393 44.5719 97.3693 43.7641 97.226 42.983L95.068 43.1869C95.2119 44.1026 95.1072 44.9832 94.7538 45.8287C94.4158 46.6638 93.8365 47.3576 93.0158 47.9101C92.1951 48.4625 91.3111 48.7539 90.3638 48.784C89.432 48.8038 88.5328 48.5878 87.6662 48.1361C86.8046 47.6585 86.0715 46.9707 85.4669 46.0725C84.8518 45.1589 84.4904 44.2209 84.3825 43.2584C84.2797 42.27 84.4179 41.3556 84.7972 40.5152C85.1816 39.6489 85.7841 38.9394 86.6048 38.3869C87.4255 37.8345 88.294 37.5536 89.2104 37.5442C90.1267 37.5349 90.9638 37.7589 91.7218 38.2163L92.754 36.3401C92.0737 35.8979 91.314 35.6217 90.4748 35.5116C89.6252 35.386 88.7659 35.4132 87.8969 35.5932C87.0279 35.7731 86.2063 36.1237 85.4321 36.6449C84.2088 37.4684 83.3255 38.4794 82.7821 39.6778C82.2283 40.8607 82.0165 42.1172 82.1468 43.4471C82.277 44.7771 82.7591 46.0615 83.5931 47.3002C84.427 48.539 85.4408 49.4767 86.6345 50.1133C87.8177 50.7344 89.0667 51.0187 90.3815 50.9662C91.6963 50.9136 92.9653 50.4756 94.1886 49.6521Z" fill="white"/>
<path d="M119.482 35.034C120.416 34.608 121.196 34.0678 121.82 33.4135C122.455 32.7345 122.936 32.0124 123.264 31.2473C123.584 30.4651 123.741 29.7064 123.733 28.9711L121.708 28.8486C121.609 29.7555 121.328 30.6017 120.865 31.3871C120.403 32.1725 119.671 32.7937 118.669 33.2508C117.854 33.6226 117 33.7759 116.109 33.7106C115.217 33.6453 114.383 33.3691 113.607 32.8819C112.84 32.37 112.215 31.6293 111.732 30.6598L122.483 25.7563C122.416 25.52 122.344 25.2961 122.268 25.0845C122.185 24.856 122.104 24.6568 122.027 24.487C121.655 23.6718 121.15 22.9479 120.513 22.3153C119.868 21.6658 119.134 21.1593 118.312 20.7957C117.482 20.4152 116.595 20.2248 115.651 20.2245C114.716 20.1995 113.756 20.4116 112.771 20.8609C111.532 21.4264 110.55 22.2433 109.827 23.3118C109.121 24.3725 108.723 25.5695 108.634 26.9028C108.536 28.2192 108.802 29.5652 109.429 30.9408C110.056 32.3165 110.915 33.4122 112.005 34.228C113.096 35.0439 114.294 35.5336 115.599 35.6972C116.914 35.836 118.208 35.615 119.482 35.034ZM113.585 22.6441C114.349 22.2955 115.127 22.1563 115.918 22.2263C116.726 22.2886 117.46 22.5487 118.12 23.0067C118.79 23.4399 119.319 24.0603 119.708 24.8677L110.97 28.8533C110.684 27.9576 110.614 27.1073 110.76 26.3022C110.915 25.4724 111.238 24.7405 111.728 24.1064C112.219 23.4724 112.837 22.985 113.585 22.6441Z" fill="white"/>
<path d="M161.764 20.9989C163.159 20.7409 164.337 20.1814 165.297 19.3203C166.273 18.4375 166.966 17.3601 167.376 16.0883C167.802 14.7948 167.878 13.4138 167.607 11.9453C167.332 10.4586 166.766 9.19637 165.91 8.15879C165.072 7.11782 164.041 6.36878 162.818 5.91166C161.609 5.4328 160.307 5.32236 158.912 5.58036C157.756 5.79422 156.761 6.21547 155.928 6.84408C155.095 7.4727 154.449 8.23766 153.989 9.13897L152.452 0.823975L150.387 1.20588L154.241 22.0484L156.306 21.6665L155.863 19.2712C156.573 20.032 157.45 20.5628 158.493 20.8635C159.535 21.1642 160.626 21.2094 161.764 20.9989ZM161.272 18.9543C160.281 19.1376 159.335 19.0561 158.436 18.7099C157.555 18.3603 156.798 17.8074 156.165 17.0513C155.546 16.2735 155.138 15.3523 154.942 14.2877C154.745 13.223 154.798 12.2261 155.1 11.2969C155.418 10.346 155.926 9.54969 156.623 8.90812C157.339 8.26316 158.193 7.84902 159.184 7.66571C160.175 7.4824 161.102 7.56725 161.965 7.92027C162.846 8.2699 163.584 8.82615 164.181 9.58902C164.796 10.3485 165.204 11.2697 165.404 12.3527C165.601 13.4173 165.55 14.4234 165.25 15.371C164.966 16.2968 164.475 17.0805 163.777 17.7221C163.098 18.3602 162.263 18.771 161.272 18.9543Z" fill="white"/>
<path d="M191.167 17.5493C192.1 17.5356 192.937 17.3274 193.678 16.9245C194.419 16.5216 195.008 15.9809 195.447 15.3024L195.474 17.1503L197.573 17.1195L197.354 2.11313L195.254 2.14386L195.385 11.0749C195.404 12.4188 195.046 13.4788 194.311 14.2549C193.594 15.0308 192.657 15.4273 191.5 15.4442C190.362 15.4609 189.423 15.1105 188.684 14.3933C187.946 13.6573 187.567 12.6828 187.55 11.4696L187.415 2.25855L185.315 2.28927L185.453 11.7523C185.47 12.9095 185.728 13.9325 186.226 14.8213C186.743 15.6911 187.435 16.3718 188.301 16.8632C189.166 17.3359 190.122 17.5646 191.167 17.5493Z" fill="white"/>
<path d="M215.056 17.9364L217.141 18.1892L218.253 9.01645C218.401 7.79341 218.84 6.88767 219.57 6.29922C220.299 5.71077 221.201 5.48173 222.276 5.61209L223.583 5.77054L223.836 3.68582L222.89 3.57119C221.982 3.46106 221.176 3.52305 220.47 3.75717C219.784 3.99353 219.211 4.37534 218.752 4.90259L218.948 3.29041L216.863 3.03756L215.056 17.9364Z" fill="white"/>
<path d="M241.465 22.8527C242.457 23.1164 243.402 23.1936 244.3 23.0846C245.221 22.9623 246.051 22.7096 246.79 22.3266C247.534 21.9255 248.137 21.4386 248.598 20.8658L247.111 19.4856C246.458 20.1234 245.704 20.5991 244.848 20.9125C243.993 21.2259 243.032 21.2412 241.968 20.9585C241.102 20.7284 240.345 20.3052 239.698 19.689C239.05 19.0727 238.581 18.3301 238.291 17.461C238.023 16.5786 238.01 15.6095 238.252 14.5535L249.672 17.5876C249.77 17.3626 249.857 17.1443 249.933 16.9326C250.013 16.7029 250.077 16.4978 250.125 16.3174C250.355 15.4514 250.425 14.5718 250.334 13.6785C250.248 12.7671 250.002 11.91 249.597 11.1072C249.197 10.2863 248.633 9.57617 247.904 8.97683C247.197 8.36424 246.321 7.91895 245.275 7.64095C243.958 7.29105 242.681 7.29944 241.444 7.66612C240.225 8.03758 239.158 8.71012 238.242 9.68373C237.332 10.6393 236.682 11.8477 236.294 13.309C235.906 14.7703 235.874 16.1622 236.199 17.4845C236.523 18.8069 237.138 19.9456 238.043 20.9007C238.971 21.8426 240.112 22.4933 241.465 22.8527ZM244.771 9.53523C245.583 9.75092 246.272 10.1369 246.839 10.6931C247.424 11.2541 247.826 11.921 248.046 12.694C248.288 13.4537 248.303 14.2689 248.091 15.1397L238.809 12.6736C239.157 11.8004 239.643 11.0989 240.267 10.5693C240.913 10.0264 241.627 9.66558 242.408 9.4869C243.19 9.30823 243.977 9.32434 244.771 9.53523Z" fill="white"/>
<path d="M268.106 31.6876C269.161 32.164 270.21 32.3817 271.252 32.3406C272.295 32.2996 273.187 32.0472 273.929 31.5835L273.042 33.5484L274.956 34.4128L279.197 25.0224C279.605 24.1208 279.741 23.2298 279.606 22.3496C279.496 21.46 279.137 20.6428 278.532 19.8981C277.943 19.161 277.147 18.5658 276.143 18.1124C275.377 17.7667 274.572 17.577 273.727 17.5435C272.89 17.4929 272.083 17.579 271.306 17.8017C270.547 18.0322 269.909 18.379 269.392 18.8421L270.701 20.57C271.307 20.0449 272.017 19.7203 272.83 19.5964C273.652 19.4554 274.48 19.5732 275.313 19.9497C276.266 20.38 276.924 20.9848 277.289 21.7641C277.654 22.5434 277.652 23.3414 277.283 24.1579L276.961 24.8724L271.641 23.4529C270.012 23.0241 268.672 23.0435 267.621 23.511C266.57 23.9785 265.806 24.7396 265.33 25.7943C264.992 26.5428 264.888 27.2946 265.018 28.0498C265.148 28.8049 265.476 29.5063 266.003 30.1539C266.538 30.7845 267.239 31.2957 268.106 31.6876ZM267.406 26.6399C267.69 26.0104 268.149 25.5621 268.782 25.2949C269.431 25.0354 270.288 25.0434 271.352 25.319L276.177 26.6076L275.716 27.6283C275.339 28.4619 274.802 29.1305 274.103 29.6343C273.404 30.138 272.614 30.4365 271.732 30.5297C270.858 30.6059 269.953 30.4327 269.018 30.0101C268.252 29.6643 267.719 29.1673 267.417 28.5192C267.133 27.8787 267.129 27.2523 267.406 26.6399Z" fill="white"/>
<path d="M294.868 45.7105C295.646 46.226 296.454 46.5266 297.293 46.6123C298.132 46.698 298.924 46.5844 299.669 46.2717L298.648 47.8122L300.399 48.9722L308.689 36.4615L306.938 35.3015L302.004 42.7472C301.262 43.8676 300.368 44.5406 299.323 44.7661C298.293 45.002 297.296 44.8003 296.331 44.161C295.382 43.532 294.805 42.7131 294.6 41.7041C294.406 40.6795 294.644 39.6615 295.314 38.6501L300.403 30.971L298.652 29.811L293.424 37.7002C292.785 38.665 292.42 39.6548 292.33 40.6698C292.265 41.6796 292.452 42.6316 292.889 43.5261C293.337 44.405 293.997 45.1331 294.868 45.7105Z" fill="white"/>
<path d="M329.023 63.8394L335.792 70.926L337.209 69.5722L330.44 62.4856L329.023 63.8394Z" fill="white"/>
<path d="M351.527 102.673C352.071 103.566 352.702 104.263 353.423 104.765C354.159 105.256 354.922 105.524 355.714 105.567C356.514 105.626 357.265 105.442 357.967 105.015C358.828 104.491 359.398 103.74 359.677 102.761C359.965 101.799 359.946 100.708 359.618 99.4867L358.944 96.9795C358.872 96.7174 358.808 96.3961 358.751 96.0155C358.704 95.6508 358.74 95.2792 358.859 94.9007C358.978 94.5222 359.253 94.2019 359.684 93.9399C360.242 93.6003 360.835 93.5341 361.464 93.7415C362.093 93.9488 362.626 94.4113 363.062 95.1288C363.509 95.8624 363.704 96.6503 363.649 97.4926C363.619 98.3411 363.342 99.1432 362.819 99.8988L364.468 100.993C365.249 100.015 365.647 98.9094 365.662 97.6768C365.702 96.4504 365.392 95.2951 364.733 94.2108C364.247 93.4135 363.654 92.7801 362.953 92.3107C362.253 91.8413 361.507 91.5851 360.716 91.542C359.925 91.499 359.154 91.7055 358.405 92.1616C357.608 92.6468 357.066 93.3369 356.78 94.2319C356.495 95.1268 356.544 96.2662 356.927 97.65L357.521 99.812C357.613 100.106 357.689 100.464 357.749 100.886C357.809 101.308 357.782 101.73 357.666 102.15C357.566 102.56 357.293 102.901 356.846 103.173C356.24 103.542 355.586 103.579 354.883 103.286C354.196 102.983 353.619 102.449 353.154 101.683C352.668 100.886 352.453 100.012 352.508 99.0607C352.573 98.1255 352.884 97.2368 353.442 96.3945L351.808 95.3243C350.992 96.3891 350.554 97.5732 350.495 98.8765C350.436 100.18 350.78 101.445 351.527 102.673Z" fill="white"/>
<path d="M362.312 121.233L363.116 123.172L371.367 119.751C372.608 119.236 373.726 119.177 374.719 119.574C375.719 119.988 376.433 120.712 376.862 121.746C377.291 122.781 377.292 123.781 376.864 124.747C376.46 125.722 375.629 126.471 374.37 126.993L366.119 130.415L366.924 132.354L375.924 128.622C376.907 128.215 377.69 127.617 378.273 126.83C378.88 126.053 379.244 125.174 379.363 124.195C379.49 123.233 379.349 122.261 378.942 121.278C378.584 120.416 378.081 119.715 377.433 119.176C376.785 118.636 376.065 118.288 375.272 118.132L382.696 115.054L381.891 113.114L362.312 121.233Z" fill="white"/>
<path d="M374.004 155.584C374.316 156.949 374.927 158.111 375.836 159.072C376.749 160.05 377.856 160.745 379.156 161.156C380.475 161.563 381.88 161.596 383.372 161.254C384.846 160.917 386.081 160.29 387.078 159.373C388.079 158.474 388.778 157.385 389.175 156.107C389.576 154.847 389.614 153.508 389.29 152.088C388.965 150.669 388.337 149.472 387.406 148.498C386.497 147.538 385.394 146.861 384.098 146.468C382.802 146.075 381.426 146.045 379.97 146.378C378.496 146.715 377.252 147.345 376.237 148.266C375.244 149.202 374.541 150.31 374.125 151.593C373.728 152.871 373.688 154.201 374.004 155.584ZM376.051 155.116C375.827 154.133 375.868 153.185 376.177 152.272C376.489 151.378 377.019 150.596 377.766 149.927C378.513 149.258 379.414 148.803 380.469 148.562C381.525 148.321 382.525 148.341 383.47 148.622C384.416 148.904 385.223 149.38 385.894 150.05C386.568 150.738 387.018 151.574 387.242 152.557C387.467 153.539 387.423 154.478 387.111 155.373C386.803 156.286 386.282 157.065 385.549 157.712C384.82 158.376 383.928 158.829 382.873 159.071C381.817 159.312 380.808 159.294 379.844 159.016C378.885 158.757 378.068 158.283 377.394 157.595C376.724 156.925 376.276 156.099 376.051 155.116Z" fill="white"/>
<path d="M373.322 180.327L373.426 182.424L381.452 182.028C380.603 182.631 379.96 183.429 379.524 184.422C379.087 185.416 378.897 186.49 378.954 187.646C379.024 189.063 379.421 190.305 380.147 191.372C380.892 192.457 381.867 193.287 383.073 193.863C384.298 194.457 385.657 194.717 387.148 194.643C388.658 194.569 389.985 194.176 391.127 193.466C392.27 192.774 393.15 191.852 393.766 190.7C394.402 189.566 394.685 188.291 394.615 186.874C394.557 185.699 394.272 184.658 393.76 183.748C393.248 182.839 392.576 182.097 391.743 181.521L394.009 181.409L393.905 179.312L373.322 180.327ZM381.046 187.431C380.996 186.424 381.203 185.498 381.666 184.653C382.129 183.827 382.778 183.15 383.612 182.623C384.465 182.113 385.432 181.832 386.514 181.779C387.595 181.725 388.576 181.911 389.457 182.335C390.357 182.776 391.078 183.385 391.621 184.162C392.165 184.958 392.462 185.859 392.512 186.866C392.561 187.872 392.354 188.78 391.889 189.588C391.425 190.414 390.775 191.072 389.94 191.562C389.105 192.07 388.138 192.352 387.038 192.406C385.957 192.459 384.966 192.274 384.067 191.852C383.187 191.446 382.476 190.855 381.933 190.079C381.391 189.32 381.095 188.438 381.046 187.431Z" fill="white"/>
<path d="M396.945 213.333L396.772 215.426L399.842 215.68L400.014 213.587L396.945 213.333ZM379.225 211.87L379.052 213.963L394.01 215.198L394.182 213.105L379.225 211.87Z" fill="white"/>
<path d="M377.186 229.323L376.8 231.387L389.489 233.759L388.815 237.365L390.879 237.751L391.553 234.145L392.874 234.392C393.92 234.588 394.599 235.018 394.911 235.684C395.223 236.35 395.297 237.124 395.133 238.005C395.115 238.096 395.077 238.251 395.018 238.467C394.976 238.688 394.925 238.858 394.865 238.98L396.736 239.33C396.801 239.19 396.864 239.002 396.927 238.767C397.008 238.536 397.066 238.328 397.1 238.145C397.262 237.282 397.229 236.441 397.003 235.62C396.776 234.799 396.348 234.092 395.718 233.5C395.107 232.91 394.287 232.52 393.26 232.328L391.939 232.081L392.489 229.136L390.425 228.75L389.874 231.695L377.186 229.323Z" fill="white"/>
<path d="M367.064 247.076C366.753 248.015 366.683 248.877 366.856 249.662C367.01 250.441 367.327 251.146 367.806 251.777C368.28 252.425 368.815 253.006 369.412 253.518L383.332 265.361L384.064 263.155L373.832 254.6L387.148 253.853L387.861 251.7L371.704 252.656L370.649 251.745C369.768 250.962 369.227 250.281 369.025 249.703C368.806 249.119 368.84 248.393 369.128 247.524C369.222 247.241 369.342 246.966 369.489 246.7C369.613 246.446 369.713 246.234 369.789 246.062L367.929 245.445C367.729 245.694 367.564 245.954 367.434 246.225C367.281 246.509 367.158 246.793 367.064 247.076Z" fill="white"/>
<path d="M353.565 292.606C353.025 293.479 352.677 294.361 352.52 295.252C352.37 296.169 352.371 297.037 352.523 297.855C352.691 298.683 352.982 299.401 353.396 300.009L355.149 298.986C354.728 298.177 354.491 297.317 354.44 296.407C354.388 295.497 354.652 294.574 355.232 293.638C355.704 292.876 356.328 292.274 357.106 291.834C357.883 291.393 358.73 291.16 359.646 291.134C360.568 291.134 361.5 291.403 362.44 291.941L356.221 301.988C356.408 302.148 356.592 302.294 356.772 302.428C356.969 302.572 357.147 302.692 357.305 302.791C358.067 303.262 358.889 303.584 359.77 303.756C360.667 303.938 361.559 303.952 362.444 303.798C363.346 303.654 364.189 303.319 364.975 302.796C365.766 302.298 366.446 301.588 367.016 300.668C367.733 299.509 368.096 298.284 368.104 296.994C368.103 295.72 367.769 294.504 367.103 293.345C366.453 292.196 365.485 291.224 364.199 290.428C362.913 289.633 361.591 289.198 360.231 289.125C358.871 289.052 357.603 289.31 356.427 289.898C355.256 290.513 354.302 291.416 353.565 292.606ZM365.35 299.636C364.908 300.35 364.338 300.898 363.641 301.279C362.935 301.676 362.18 301.867 361.376 301.853C360.579 301.864 359.794 301.642 359.023 301.186L364.077 293.02C364.812 293.606 365.342 294.275 365.668 295.025C366 295.801 366.138 296.589 366.082 297.389C366.026 298.189 365.782 298.938 365.35 299.636Z" fill="white"/>
<path d="M341.646 311.003L339.953 312.982L341.744 319.674L334.855 318.938L333.181 320.896L342.286 321.796L344.583 330.653L346.258 328.696L344.467 322.004L351.356 322.74L353.03 320.782L343.925 319.882L341.646 311.003Z" fill="white"/>
<path d="M319.825 327.016L318.227 328.378L323.438 334.494C322.443 334.19 321.419 334.168 320.365 334.428C319.312 334.688 318.344 335.193 317.463 335.944C316.384 336.864 315.642 337.937 315.24 339.163C314.835 340.415 314.773 341.694 315.053 343.001C315.33 344.334 315.953 345.569 316.922 346.705C317.902 347.856 319.023 348.667 320.283 349.139C321.528 349.622 322.795 349.757 324.084 349.542C325.37 349.353 326.553 348.799 327.633 347.879C328.528 347.116 329.179 346.254 329.587 345.294C329.995 344.333 330.173 343.348 330.121 342.337L331.592 344.064L333.191 342.702L319.825 327.016ZM318.911 337.47C319.678 336.816 320.537 336.414 321.49 336.265C322.427 336.128 323.359 336.229 324.286 336.568C325.21 336.933 326.023 337.528 326.725 338.352C327.428 339.176 327.879 340.066 328.081 341.022C328.281 342.005 328.239 342.948 327.954 343.853C327.656 344.769 327.123 345.554 326.356 346.208C325.589 346.861 324.743 347.251 323.82 347.376C322.882 347.513 321.964 347.4 321.066 347.036C320.154 346.686 319.341 346.091 318.627 345.253C317.924 344.429 317.466 343.531 317.253 342.561C317.037 341.617 317.071 340.693 317.355 339.788C317.625 338.896 318.143 338.123 318.911 337.47Z" fill="white"/>
<path d="M292.408 354.402C291.524 354.924 290.806 355.544 290.254 356.26C289.695 357.003 289.293 357.771 289.048 358.567C288.812 359.378 288.736 360.15 288.821 360.88L290.848 360.788C290.851 359.875 291.041 359.004 291.418 358.174C291.795 357.345 292.457 356.649 293.405 356.089C294.176 355.633 295.009 355.391 295.902 355.361C296.796 355.332 297.654 355.519 298.477 355.921C299.294 356.349 299.994 357.02 300.577 357.933L290.405 363.945C290.496 364.172 290.591 364.388 290.688 364.59C290.796 364.808 290.897 364.998 290.992 365.159C291.448 365.93 292.026 366.596 292.727 367.158C293.437 367.736 294.22 368.162 295.076 368.437C295.942 368.727 296.844 368.823 297.783 368.723C298.715 368.65 299.647 368.337 300.579 367.786C301.752 367.093 302.642 366.177 303.248 365.038C303.838 363.909 304.107 362.676 304.055 361.341C304.012 360.022 303.607 358.711 302.837 357.41C302.068 356.108 301.098 355.109 299.928 354.413C298.758 353.717 297.515 353.357 296.199 353.332C294.877 353.333 293.613 353.689 292.408 354.402ZM299.582 366.099C298.858 366.526 298.1 366.747 297.306 366.761C296.496 366.785 295.738 366.603 295.033 366.218C294.322 365.858 293.73 365.297 293.258 364.535L301.526 359.648C301.904 360.509 302.064 361.347 302.004 362.163C301.937 363.005 301.694 363.766 301.273 364.449C300.852 365.131 300.289 365.681 299.582 366.099Z" fill="white"/>
<path d="M271.604 365.754L269.666 366.562L273.22 375.091C273.694 376.228 273.758 377.233 273.414 378.104C273.069 378.976 272.397 379.62 271.398 380.037L270.183 380.543L270.991 382.481L271.869 382.115C272.714 381.763 273.385 381.312 273.883 380.76C274.364 380.216 274.674 379.601 274.814 378.916L275.438 380.416L277.377 379.608L271.604 365.754Z" fill="white"/>
<path d="M247.364 374.323C247.202 374.369 246.99 374.44 246.726 374.536C246.462 374.632 246.231 374.738 246.031 374.854L246.56 376.683C246.698 376.623 246.863 376.556 247.055 376.481C247.247 376.406 247.415 376.348 247.559 376.307C248.455 376.047 249.141 376.102 249.617 376.469C250.092 376.837 250.434 377.38 250.641 378.097L253.013 386.301L249.839 387.219L250.422 389.236L253.596 388.318L254.56 391.654L256.578 391.07L256.228 389.86C256.051 389.25 256.083 388.687 256.322 388.171C256.567 387.673 256.994 387.336 257.604 387.16L258.276 386.965L257.693 384.948L255.03 385.718L252.658 377.514C252.254 376.115 251.593 375.14 250.676 374.589C249.759 374.038 248.655 373.949 247.364 374.323Z" fill="white"/>
<path d="M227.045 378.72C226.011 378.876 225.124 379.189 224.383 379.659C223.645 380.148 223.103 380.749 222.758 381.462C222.394 382.178 222.273 382.942 222.396 383.754C222.546 384.75 223.018 385.566 223.813 386.202C224.589 386.84 225.603 387.244 226.856 387.413L229.428 387.761C229.698 387.796 230.019 387.861 230.392 387.956C230.747 388.053 231.075 388.23 231.378 388.486C231.681 388.743 231.87 389.12 231.946 389.618C232.043 390.264 231.875 390.837 231.44 391.337C231.006 391.837 230.374 392.149 229.543 392.275C228.694 392.403 227.892 392.278 227.136 391.902C226.365 391.546 225.733 390.981 225.238 390.206L223.592 391.304C224.191 392.403 225.057 393.197 226.188 393.687C227.304 394.198 228.489 394.359 229.744 394.17C230.667 394.031 231.48 393.729 232.184 393.264C232.888 392.799 233.413 392.21 233.758 391.497C234.104 390.784 234.211 389.994 234.08 389.126C233.941 388.204 233.514 387.437 232.799 386.828C232.084 386.218 231.014 385.823 229.59 385.641L227.366 385.354C227.06 385.325 226.7 385.256 226.287 385.149C225.875 385.041 225.497 384.853 225.154 384.583C224.814 384.333 224.606 383.949 224.528 383.432C224.422 382.731 224.64 382.112 225.182 381.578C225.727 381.061 226.443 380.736 227.329 380.602C228.252 380.463 229.141 380.603 229.997 381.021C230.835 381.442 231.534 382.073 232.095 382.913L233.714 381.819C233.047 380.655 232.124 379.794 230.945 379.236C229.766 378.677 228.466 378.505 227.045 378.72Z" fill="white"/>
</svg>
